<svg width="25" height="31" viewBox="0 0 25 31" fill="none" xmlns="http://www.w3.org/2000/svg">
<g id="Iconly/Bold/Buy">
<g id="Buy">
<path id="Buy_2" fill-rule="evenodd" clip-rule="evenodd" d="M14.1213 12.1143H16.8891C17.3088 12.1143 17.6386 11.7641 17.6386 11.3419C17.6386 10.9093 17.3088 10.5694 16.8891 10.5694H14.1213C13.7016 10.5694 13.3719 10.9093 13.3719 11.3419C13.3719 11.7641 13.7016 12.1143 14.1213 12.1143ZM20.1766 6.76072C20.7861 6.76072 21.1858 6.97696 21.5855 7.45062C21.9852 7.92428 22.0551 8.60389 21.9652 9.22068L21.0159 15.9755C20.8361 17.274 19.7569 18.2306 18.4879 18.2306H7.58639C6.25742 18.2306 5.15828 17.1813 5.04837 15.8221L4.12908 4.59732L2.62026 4.3296C2.22057 4.25752 1.94079 3.85593 2.01073 3.44405C2.08068 3.02291 2.47038 2.74386 2.88006 2.80667L5.2632 3.17633C5.60293 3.23914 5.85274 3.52643 5.88272 3.87653L6.07257 6.18306C6.10254 6.51359 6.36234 6.76072 6.68209 6.76072H20.1766ZM7.42632 19.8578C6.58697 19.8578 5.9075 20.558 5.9075 21.4231C5.9075 22.2778 6.58697 22.9781 7.42632 22.9781C8.25567 22.9781 8.93514 22.2778 8.93514 21.4231C8.93514 20.558 8.25567 19.8578 7.42632 19.8578ZM18.6676 19.8578C17.8282 19.8578 17.1487 20.558 17.1487 21.4231C17.1487 22.2778 17.8282 22.9781 18.6676 22.9781C19.4969 22.9781 20.1764 22.2778 20.1764 21.4231C20.1764 20.558 19.4969 19.8578 18.6676 19.8578Z" fill="#1C2135"/>
</g>
<circle id="Ellipse 20" cx="21.5" cy="6.81543" r="3" fill="#FF5B37" stroke="white"/>
</g>
</svg>
