<svg width="1870" height="7149" viewBox="0 0 1870 7149" fill="none" xmlns="http://www.w3.org/2000/svg">
<g clip-path="url(#clip0_1_22)">
<path d="M269 2537C341 3009 1776 3516 1736 4036C1696 4556 517 4945 517 5041" stroke="#9381FF" stroke-width="14"/>
<path d="M269 15C341 487 1776 994 1736 1514C1696 2034 517 2423 517 2519" stroke="#9381FF" stroke-width="14"/>
<path d="M269 3963C341 4435 1776 4942 1736 5462C1696 5982 517 6371 517 6467" stroke="#9381FF" stroke-width="14"/>
<path d="M282.998 2522C214.332 2672.67 124.298 2991.8 313.498 3063C549.998 3152 645.998 3025.5 846.998 3184" stroke="#EE3159" stroke-width="14" stroke-linecap="round"/>
<path d="M282.998 0C214.332 150.667 124.298 469.8 313.498 541C549.998 630 645.998 503.5 846.998 662" stroke="#EE3159" stroke-width="14" stroke-linecap="round"/>
<path d="M282.998 3948C214.332 4098.67 124.298 4417.8 313.498 4489C549.998 4578 645.998 4451.5 846.998 4610" stroke="#EE3159" stroke-width="14" stroke-linecap="round"/>
<path d="M729.241 261C604.03 301.047 -416.999 862.786 376 1047C1043.79 1202.13 1380 1685 1406 1757C1573.22 2220.06 424 1709 264 2005C45.0078 2410.14 965.053 2285.2 965.053 2683.81C965.053 2980.16 149.099 2852.01 316.046 3158.36C482.677 3464.14 1943.78 3156.36 1609.89 3701C1275.99 4245.63 -72.1056 4169.54 3.02061 4642.09C78.1468 5114.64 1497.2 5619.22 1455.46 6139.83C1413.72 6660.43 261.789 7052.89 261.789 7149" stroke="#9381FF" stroke-width="14"/>
<path d="M261.301 3109.58C312.955 3201.8 443.544 3192.15 502.382 3175.8C505.01 3166.19 498.209 3147.5 449.982 3149.63C389.698 3152.3 357.417 3090.29 396.788 3010.76C436.16 2931.23 196.734 2994.3 261.301 3109.58Z" fill="url(#paint0_linear_1_22)"/>
<path d="M261.301 587.58C312.955 679.8 443.544 670.155 502.382 653.804C505.01 644.192 498.209 625.501 449.982 627.632C389.698 630.297 357.417 568.29 396.788 488.759C436.16 409.229 196.734 472.304 261.301 587.58Z" fill="url(#paint1_linear_1_22)"/>
<path d="M261.301 4535.58C312.955 4627.8 443.544 4618.15 502.382 4601.8C505.01 4592.19 498.209 4573.5 449.982 4575.63C389.698 4578.3 357.417 4516.29 396.788 4436.76C436.16 4357.23 196.734 4420.3 261.301 4535.58Z" fill="url(#paint2_linear_1_22)"/>
<path d="M1581.02 3759C1435.81 3805.51 1444.09 3674.99 1444.09 3669.74C1453.87 3644.23 1496 3684.74 1567.47 3682.49C1638.95 3680.24 1581.02 3616.48 1596.81 3575.97C1612.61 3535.47 1726.22 3712.49 1581.02 3759Z" fill="#5339B8"/>
<path d="M1581.02 1237C1435.81 1283.51 1444.09 1152.99 1444.09 1147.74C1453.87 1122.23 1496 1162.74 1567.47 1160.49C1638.95 1158.24 1581.02 1094.48 1596.81 1053.97C1612.61 1013.47 1726.22 1190.49 1581.02 1237Z" fill="#5339B8"/>
<path d="M1581.02 5185C1435.81 5231.51 1444.09 5100.99 1444.09 5095.74C1453.87 5070.23 1496 5110.74 1567.47 5108.49C1638.95 5106.24 1581.02 5042.48 1596.81 5001.97C1612.61 4961.47 1726.22 5138.49 1581.02 5185Z" fill="#5339B8"/>
<path d="M756.953 4205.27C758.128 4322.51 1021.7 4087.68 883.828 4021.55C849.675 4003.69 780.239 3972.08 775.724 3988.53C770.079 4009.08 798.473 4038.94 835.154 4123.91C871.835 4208.89 755.777 4088.03 756.953 4205.27Z" fill="#F04A6D"/>
<path d="M756.953 1683.27C758.128 1800.51 1021.7 1565.68 883.828 1499.55C849.675 1481.69 780.239 1450.08 775.724 1466.53C770.079 1487.08 798.473 1516.94 835.154 1601.91C871.835 1686.89 755.777 1566.03 756.953 1683.27Z" fill="#F04A6D"/>
<path d="M756.953 5631.27C758.128 5748.51 1021.7 5513.68 883.828 5447.55C849.675 5429.69 780.239 5398.08 775.724 5414.53C770.079 5435.08 798.473 5464.94 835.154 5549.91C871.835 5634.89 755.777 5514.03 756.953 5631.27Z" fill="#F04A6D"/>
<path d="M1596.98 4454.88C1539.91 4395.07 1483.85 4450.74 1462.95 4486.05C1455.76 4495.79 1459.29 4517.08 1530.91 4524.3C1620.44 4533.34 1569.57 4546.16 1521.96 4609.31C1474.35 4672.46 1558.76 4686.19 1673.45 4614.63C1788.14 4543.06 1668.32 4529.63 1596.98 4454.88Z" fill="#FFB703"/>
<path d="M1596.98 1932.88C1539.91 1873.07 1483.85 1928.74 1462.95 1964.05C1455.76 1973.79 1459.29 1995.08 1530.91 2002.3C1620.44 2011.34 1569.57 2024.16 1521.96 2087.31C1474.35 2150.46 1558.76 2164.19 1673.45 2092.63C1788.14 2021.06 1668.32 2007.63 1596.98 1932.88Z" fill="#FFB703"/>
<path d="M1596.98 5880.88C1539.91 5821.07 1483.85 5876.74 1462.95 5912.05C1455.76 5921.79 1459.29 5943.08 1530.91 5950.3C1620.44 5959.34 1569.57 5972.16 1521.96 6035.31C1474.35 6098.46 1558.76 6112.19 1673.45 6040.63C1788.14 5969.06 1668.32 5955.63 1596.98 5880.88Z" fill="#FFB703"/>
<circle cx="1643.5" cy="3572.5" r="6.5" fill="#5339B8"/>
<circle cx="1643.5" cy="1050.5" r="6.5" fill="#5339B8"/>
<circle cx="1643.5" cy="4998.5" r="6.5" fill="#5339B8"/>
<circle cx="249.5" cy="3992.5" r="6.5" fill="#5339B8"/>
<circle cx="249.5" cy="1470.5" r="6.5" fill="#5339B8"/>
<circle cx="249.5" cy="5418.5" r="6.5" fill="#5339B8"/>
<circle r="6.5" transform="matrix(0.641068 0.767484 0.767484 -0.641068 1861.16 3255.16)" fill="#5339B8"/>
<circle r="6.5" transform="matrix(0.641068 0.767484 0.767484 -0.641068 1861.16 733.156)" fill="#5339B8"/>
<circle r="6.5" transform="matrix(0.641068 0.767484 0.767484 -0.641068 1861.16 4681.16)" fill="#5339B8"/>
<circle cx="112" cy="3791" r="4" fill="#EE3159"/>
<circle cx="112" cy="1269" r="4" fill="#EE3159"/>
<circle cx="112" cy="5217" r="4" fill="#EE3159"/>
<circle r="4" transform="matrix(0.641068 0.767484 0.767484 -0.641068 1705.63 4054.63)" fill="#EE3159"/>
<circle r="4" transform="matrix(0.641068 0.767484 0.767484 -0.641068 1705.63 1532.63)" fill="#EE3159"/>
<circle r="4" transform="matrix(0.641068 0.767484 0.767484 -0.641068 1705.63 5480.63)" fill="#EE3159"/>
<circle cx="1691" cy="3778" r="9" fill="#01CCFA"/>
<circle cx="1691" cy="1256" r="9" fill="#01CCFA"/>
<circle cx="1691" cy="5204" r="9" fill="#01CCFA"/>
<circle cx="406" cy="3695" r="9" fill="#01CCFA"/>
<circle cx="406" cy="1173" r="9" fill="#01CCFA"/>
<circle cx="406" cy="5121" r="9" fill="#01CCFA"/>
<circle r="9" transform="matrix(0.641068 0.767484 0.767484 -0.641068 1748.68 4450.68)" fill="#FFBA60"/>
<circle r="9" transform="matrix(0.641068 0.767484 0.767484 -0.641068 1748.68 1928.68)" fill="#FFBA60"/>
<circle r="9" transform="matrix(0.641068 0.767484 0.767484 -0.641068 1748.68 5876.68)" fill="#FFBA60"/>
<circle cx="236" cy="2843" r="7" fill="#00D2FF"/>
<circle cx="236" cy="321" r="7" fill="#00D2FF"/>
<circle cx="236" cy="4269" r="7" fill="#00D2FF"/>
<circle cx="273" cy="3192" r="5" fill="#EE3159"/>
<circle cx="273" cy="670" r="5" fill="#EE3159"/>
<circle cx="273" cy="4618" r="5" fill="#EE3159"/>
<circle cx="44" cy="2991" r="13" fill="#FFBA60"/>
<circle cx="44" cy="469" r="13" fill="#FFBA60"/>
<circle cx="44" cy="4417" r="13" fill="#FFBA60"/>
<circle cx="223" cy="3437" r="16" fill="#5339B8"/>
<circle cx="223" cy="915" r="16" fill="#5339B8"/>
<circle cx="223" cy="4863" r="16" fill="#5339B8"/>
</g>
<defs>
<linearGradient id="paint0_linear_1_22" x1="285.25" y1="3006.25" x2="478.593" y2="3199.59" gradientUnits="userSpaceOnUse">
<stop stop-color="#9381FF"/>
<stop offset="1" stop-color="#0CD2FF" stop-opacity="0"/>
</linearGradient>
<linearGradient id="paint1_linear_1_22" x1="285.25" y1="484.25" x2="478.593" y2="677.593" gradientUnits="userSpaceOnUse">
<stop stop-color="#9381FF"/>
<stop offset="1" stop-color="#0CD2FF" stop-opacity="0"/>
</linearGradient>
<linearGradient id="paint2_linear_1_22" x1="285.25" y1="4432.25" x2="478.593" y2="4625.59" gradientUnits="userSpaceOnUse">
<stop stop-color="#9381FF"/>
<stop offset="1" stop-color="#0CD2FF" stop-opacity="0"/>
</linearGradient>
<clipPath id="clip0_1_22">
<rect width="1870" height="7149" fill="white"/>
</clipPath>
</defs>
</svg>
